<mxfile host="app.diagrams.net" modified="2020-10-07T02:31:21.429Z" agent="5.0 (Macintosh; Intel Mac OS X 10_15_6) AppleWebKit/537.36 (KHTML, like Gecko) Chrome/85.0.4183.121 Safari/537.36" etag="kc4xWccES9lkQ4M6mBax" version="13.7.7" type="github">
  <diagram id="R2lEEEUBdFMjLlhIrx00" name="Page-1">
    <mxGraphModel dx="946" dy="614" grid="1" gridSize="10" guides="1" tooltips="1" connect="1" arrows="1" fold="1" page="1" pageScale="1" pageWidth="850" pageHeight="1100" math="0" shadow="0" extFonts="Permanent Marker^https://fonts.googleapis.com/css?family=Permanent+Marker">
      <root>
        <mxCell id="0" />
        <mxCell id="1" parent="0" />
        <mxCell id="r0XppYjOHFWuuAW1p3Sf-132" value="Users" style="shape=table;startSize=30;container=1;collapsible=1;childLayout=tableLayout;fixedRows=1;rowLines=0;fontStyle=1;align=center;resizeLast=1;" vertex="1" parent="1">
          <mxGeometry x="80" y="50" width="210" height="360" as="geometry" />
        </mxCell>
        <mxCell id="r0XppYjOHFWuuAW1p3Sf-136" value="" style="shape=partialRectangle;collapsible=0;dropTarget=0;pointerEvents=0;fillColor=none;top=0;left=0;bottom=0;right=0;points=[[0,0.5],[1,0.5]];portConstraint=eastwest;" vertex="1" parent="r0XppYjOHFWuuAW1p3Sf-132">
          <mxGeometry y="30" width="210" height="30" as="geometry" />
        </mxCell>
        <mxCell id="r0XppYjOHFWuuAW1p3Sf-145" style="shape=partialRectangle;connectable=0;fillColor=none;top=0;left=0;bottom=0;right=0;align=left;spacingLeft=6;overflow=hidden;" vertex="1" parent="r0XppYjOHFWuuAW1p3Sf-136">
          <mxGeometry width="30" height="30" as="geometry" />
        </mxCell>
        <mxCell id="r0XppYjOHFWuuAW1p3Sf-138" value="nickname" style="shape=partialRectangle;connectable=0;fillColor=none;top=0;left=0;bottom=0;right=0;align=left;spacingLeft=6;overflow=hidden;" vertex="1" parent="r0XppYjOHFWuuAW1p3Sf-136">
          <mxGeometry x="30" width="180" height="30" as="geometry" />
        </mxCell>
        <mxCell id="r0XppYjOHFWuuAW1p3Sf-139" value="" style="shape=partialRectangle;collapsible=0;dropTarget=0;pointerEvents=0;fillColor=none;top=0;left=0;bottom=0;right=0;points=[[0,0.5],[1,0.5]];portConstraint=eastwest;" vertex="1" parent="r0XppYjOHFWuuAW1p3Sf-132">
          <mxGeometry y="60" width="210" height="30" as="geometry" />
        </mxCell>
        <mxCell id="r0XppYjOHFWuuAW1p3Sf-146" style="shape=partialRectangle;connectable=0;fillColor=none;top=0;left=0;bottom=0;right=0;align=left;spacingLeft=6;overflow=hidden;" vertex="1" parent="r0XppYjOHFWuuAW1p3Sf-139">
          <mxGeometry width="30" height="30" as="geometry" />
        </mxCell>
        <mxCell id="r0XppYjOHFWuuAW1p3Sf-141" value="email" style="shape=partialRectangle;connectable=0;fillColor=none;top=0;left=0;bottom=0;right=0;align=left;spacingLeft=6;overflow=hidden;" vertex="1" parent="r0XppYjOHFWuuAW1p3Sf-139">
          <mxGeometry x="30" width="180" height="30" as="geometry" />
        </mxCell>
        <mxCell id="r0XppYjOHFWuuAW1p3Sf-142" value="" style="shape=partialRectangle;collapsible=0;dropTarget=0;pointerEvents=0;fillColor=none;top=0;left=0;bottom=0;right=0;points=[[0,0.5],[1,0.5]];portConstraint=eastwest;" vertex="1" parent="r0XppYjOHFWuuAW1p3Sf-132">
          <mxGeometry y="90" width="210" height="30" as="geometry" />
        </mxCell>
        <mxCell id="r0XppYjOHFWuuAW1p3Sf-147" style="shape=partialRectangle;connectable=0;fillColor=none;top=0;left=0;bottom=0;right=0;align=left;spacingLeft=6;overflow=hidden;" vertex="1" parent="r0XppYjOHFWuuAW1p3Sf-142">
          <mxGeometry width="30" height="30" as="geometry" />
        </mxCell>
        <mxCell id="r0XppYjOHFWuuAW1p3Sf-144" value="password" style="shape=partialRectangle;connectable=0;fillColor=none;top=0;left=0;bottom=0;right=0;align=left;spacingLeft=6;overflow=hidden;" vertex="1" parent="r0XppYjOHFWuuAW1p3Sf-142">
          <mxGeometry x="30" width="180" height="30" as="geometry" />
        </mxCell>
        <mxCell id="r0XppYjOHFWuuAW1p3Sf-160" style="shape=partialRectangle;collapsible=0;dropTarget=0;pointerEvents=0;fillColor=none;top=0;left=0;bottom=0;right=0;points=[[0,0.5],[1,0.5]];portConstraint=eastwest;" vertex="1" parent="r0XppYjOHFWuuAW1p3Sf-132">
          <mxGeometry y="120" width="210" height="30" as="geometry" />
        </mxCell>
        <mxCell id="r0XppYjOHFWuuAW1p3Sf-161" style="shape=partialRectangle;connectable=0;fillColor=none;top=0;left=0;bottom=0;right=0;align=left;spacingLeft=6;overflow=hidden;" vertex="1" parent="r0XppYjOHFWuuAW1p3Sf-160">
          <mxGeometry width="30" height="30" as="geometry" />
        </mxCell>
        <mxCell id="r0XppYjOHFWuuAW1p3Sf-162" value="passroed-confirmation" style="shape=partialRectangle;connectable=0;fillColor=none;top=0;left=0;bottom=0;right=0;align=left;spacingLeft=6;overflow=hidden;" vertex="1" parent="r0XppYjOHFWuuAW1p3Sf-160">
          <mxGeometry x="30" width="180" height="30" as="geometry" />
        </mxCell>
        <mxCell id="r0XppYjOHFWuuAW1p3Sf-157" style="shape=partialRectangle;collapsible=0;dropTarget=0;pointerEvents=0;fillColor=none;top=0;left=0;bottom=0;right=0;points=[[0,0.5],[1,0.5]];portConstraint=eastwest;" vertex="1" parent="r0XppYjOHFWuuAW1p3Sf-132">
          <mxGeometry y="150" width="210" height="30" as="geometry" />
        </mxCell>
        <mxCell id="r0XppYjOHFWuuAW1p3Sf-158" style="shape=partialRectangle;connectable=0;fillColor=none;top=0;left=0;bottom=0;right=0;align=left;spacingLeft=6;overflow=hidden;" vertex="1" parent="r0XppYjOHFWuuAW1p3Sf-157">
          <mxGeometry width="30" height="30" as="geometry" />
        </mxCell>
        <mxCell id="r0XppYjOHFWuuAW1p3Sf-159" value="family-name" style="shape=partialRectangle;connectable=0;fillColor=none;top=0;left=0;bottom=0;right=0;align=left;spacingLeft=6;overflow=hidden;" vertex="1" parent="r0XppYjOHFWuuAW1p3Sf-157">
          <mxGeometry x="30" width="180" height="30" as="geometry" />
        </mxCell>
        <mxCell id="r0XppYjOHFWuuAW1p3Sf-154" style="shape=partialRectangle;collapsible=0;dropTarget=0;pointerEvents=0;fillColor=none;top=0;left=0;bottom=0;right=0;points=[[0,0.5],[1,0.5]];portConstraint=eastwest;" vertex="1" parent="r0XppYjOHFWuuAW1p3Sf-132">
          <mxGeometry y="180" width="210" height="30" as="geometry" />
        </mxCell>
        <mxCell id="r0XppYjOHFWuuAW1p3Sf-155" style="shape=partialRectangle;connectable=0;fillColor=none;top=0;left=0;bottom=0;right=0;align=left;spacingLeft=6;overflow=hidden;" vertex="1" parent="r0XppYjOHFWuuAW1p3Sf-154">
          <mxGeometry width="30" height="30" as="geometry" />
        </mxCell>
        <mxCell id="r0XppYjOHFWuuAW1p3Sf-156" value="first-name" style="shape=partialRectangle;connectable=0;fillColor=none;top=0;left=0;bottom=0;right=0;align=left;spacingLeft=6;overflow=hidden;" vertex="1" parent="r0XppYjOHFWuuAW1p3Sf-154">
          <mxGeometry x="30" width="180" height="30" as="geometry" />
        </mxCell>
        <mxCell id="r0XppYjOHFWuuAW1p3Sf-151" style="shape=partialRectangle;collapsible=0;dropTarget=0;pointerEvents=0;fillColor=none;top=0;left=0;bottom=0;right=0;points=[[0,0.5],[1,0.5]];portConstraint=eastwest;" vertex="1" parent="r0XppYjOHFWuuAW1p3Sf-132">
          <mxGeometry y="210" width="210" height="30" as="geometry" />
        </mxCell>
        <mxCell id="r0XppYjOHFWuuAW1p3Sf-152" style="shape=partialRectangle;connectable=0;fillColor=none;top=0;left=0;bottom=0;right=0;align=left;spacingLeft=6;overflow=hidden;" vertex="1" parent="r0XppYjOHFWuuAW1p3Sf-151">
          <mxGeometry width="30" height="30" as="geometry" />
        </mxCell>
        <mxCell id="r0XppYjOHFWuuAW1p3Sf-153" value="family-name-kana" style="shape=partialRectangle;connectable=0;fillColor=none;top=0;left=0;bottom=0;right=0;align=left;spacingLeft=6;overflow=hidden;" vertex="1" parent="r0XppYjOHFWuuAW1p3Sf-151">
          <mxGeometry x="30" width="180" height="30" as="geometry" />
        </mxCell>
        <mxCell id="r0XppYjOHFWuuAW1p3Sf-148" style="shape=partialRectangle;collapsible=0;dropTarget=0;pointerEvents=0;fillColor=none;top=0;left=0;bottom=0;right=0;points=[[0,0.5],[1,0.5]];portConstraint=eastwest;" vertex="1" parent="r0XppYjOHFWuuAW1p3Sf-132">
          <mxGeometry y="240" width="210" height="30" as="geometry" />
        </mxCell>
        <mxCell id="r0XppYjOHFWuuAW1p3Sf-149" style="shape=partialRectangle;connectable=0;fillColor=none;top=0;left=0;bottom=0;right=0;align=left;spacingLeft=6;overflow=hidden;" vertex="1" parent="r0XppYjOHFWuuAW1p3Sf-148">
          <mxGeometry width="30" height="30" as="geometry" />
        </mxCell>
        <mxCell id="r0XppYjOHFWuuAW1p3Sf-150" value="first-name-kana" style="shape=partialRectangle;connectable=0;fillColor=none;top=0;left=0;bottom=0;right=0;align=left;spacingLeft=6;overflow=hidden;" vertex="1" parent="r0XppYjOHFWuuAW1p3Sf-148">
          <mxGeometry x="30" width="180" height="30" as="geometry" />
        </mxCell>
        <mxCell id="r0XppYjOHFWuuAW1p3Sf-166" style="shape=partialRectangle;collapsible=0;dropTarget=0;pointerEvents=0;fillColor=none;top=0;left=0;bottom=0;right=0;points=[[0,0.5],[1,0.5]];portConstraint=eastwest;" vertex="1" parent="r0XppYjOHFWuuAW1p3Sf-132">
          <mxGeometry y="270" width="210" height="30" as="geometry" />
        </mxCell>
        <mxCell id="r0XppYjOHFWuuAW1p3Sf-167" style="shape=partialRectangle;connectable=0;fillColor=none;top=0;left=0;bottom=0;right=0;align=left;spacingLeft=6;overflow=hidden;" vertex="1" parent="r0XppYjOHFWuuAW1p3Sf-166">
          <mxGeometry width="30" height="30" as="geometry" />
        </mxCell>
        <mxCell id="r0XppYjOHFWuuAW1p3Sf-168" value="birth-year" style="shape=partialRectangle;connectable=0;fillColor=none;top=0;left=0;bottom=0;right=0;align=left;spacingLeft=6;overflow=hidden;" vertex="1" parent="r0XppYjOHFWuuAW1p3Sf-166">
          <mxGeometry x="30" width="180" height="30" as="geometry" />
        </mxCell>
        <mxCell id="r0XppYjOHFWuuAW1p3Sf-169" style="shape=partialRectangle;collapsible=0;dropTarget=0;pointerEvents=0;fillColor=none;top=0;left=0;bottom=0;right=0;points=[[0,0.5],[1,0.5]];portConstraint=eastwest;" vertex="1" parent="r0XppYjOHFWuuAW1p3Sf-132">
          <mxGeometry y="300" width="210" height="30" as="geometry" />
        </mxCell>
        <mxCell id="r0XppYjOHFWuuAW1p3Sf-170" style="shape=partialRectangle;connectable=0;fillColor=none;top=0;left=0;bottom=0;right=0;align=left;spacingLeft=6;overflow=hidden;" vertex="1" parent="r0XppYjOHFWuuAW1p3Sf-169">
          <mxGeometry width="30" height="30" as="geometry" />
        </mxCell>
        <mxCell id="r0XppYjOHFWuuAW1p3Sf-171" value="birth-month" style="shape=partialRectangle;connectable=0;fillColor=none;top=0;left=0;bottom=0;right=0;align=left;spacingLeft=6;overflow=hidden;" vertex="1" parent="r0XppYjOHFWuuAW1p3Sf-169">
          <mxGeometry x="30" width="180" height="30" as="geometry" />
        </mxCell>
        <mxCell id="r0XppYjOHFWuuAW1p3Sf-163" style="shape=partialRectangle;collapsible=0;dropTarget=0;pointerEvents=0;fillColor=none;top=0;left=0;bottom=0;right=0;points=[[0,0.5],[1,0.5]];portConstraint=eastwest;" vertex="1" parent="r0XppYjOHFWuuAW1p3Sf-132">
          <mxGeometry y="330" width="210" height="30" as="geometry" />
        </mxCell>
        <mxCell id="r0XppYjOHFWuuAW1p3Sf-164" style="shape=partialRectangle;connectable=0;fillColor=none;top=0;left=0;bottom=0;right=0;align=left;spacingLeft=6;overflow=hidden;" vertex="1" parent="r0XppYjOHFWuuAW1p3Sf-163">
          <mxGeometry width="30" height="30" as="geometry" />
        </mxCell>
        <mxCell id="r0XppYjOHFWuuAW1p3Sf-165" value="birth-day" style="shape=partialRectangle;connectable=0;fillColor=none;top=0;left=0;bottom=0;right=0;align=left;spacingLeft=6;overflow=hidden;" vertex="1" parent="r0XppYjOHFWuuAW1p3Sf-163">
          <mxGeometry x="30" width="180" height="30" as="geometry" />
        </mxCell>
        <mxCell id="r0XppYjOHFWuuAW1p3Sf-172" value="Items" style="shape=table;startSize=30;container=1;collapsible=1;childLayout=tableLayout;fixedRows=1;rowLines=0;fontStyle=1;align=center;resizeLast=1;" vertex="1" parent="1">
          <mxGeometry x="620" y="50" width="180" height="340" as="geometry" />
        </mxCell>
        <mxCell id="r0XppYjOHFWuuAW1p3Sf-176" value="" style="shape=partialRectangle;collapsible=0;dropTarget=0;pointerEvents=0;fillColor=none;top=0;left=0;bottom=0;right=0;points=[[0,0.5],[1,0.5]];portConstraint=eastwest;" vertex="1" parent="r0XppYjOHFWuuAW1p3Sf-172">
          <mxGeometry y="30" width="180" height="30" as="geometry" />
        </mxCell>
        <mxCell id="r0XppYjOHFWuuAW1p3Sf-177" value="" style="shape=partialRectangle;connectable=0;fillColor=none;top=0;left=0;bottom=0;right=0;editable=1;overflow=hidden;" vertex="1" parent="r0XppYjOHFWuuAW1p3Sf-176">
          <mxGeometry width="30" height="30" as="geometry" />
        </mxCell>
        <mxCell id="r0XppYjOHFWuuAW1p3Sf-178" value="image" style="shape=partialRectangle;connectable=0;fillColor=none;top=0;left=0;bottom=0;right=0;align=left;spacingLeft=6;overflow=hidden;" vertex="1" parent="r0XppYjOHFWuuAW1p3Sf-176">
          <mxGeometry x="30" width="150" height="30" as="geometry" />
        </mxCell>
        <mxCell id="r0XppYjOHFWuuAW1p3Sf-179" value="" style="shape=partialRectangle;collapsible=0;dropTarget=0;pointerEvents=0;fillColor=none;top=0;left=0;bottom=0;right=0;points=[[0,0.5],[1,0.5]];portConstraint=eastwest;" vertex="1" parent="r0XppYjOHFWuuAW1p3Sf-172">
          <mxGeometry y="60" width="180" height="30" as="geometry" />
        </mxCell>
        <mxCell id="r0XppYjOHFWuuAW1p3Sf-180" value="" style="shape=partialRectangle;connectable=0;fillColor=none;top=0;left=0;bottom=0;right=0;editable=1;overflow=hidden;" vertex="1" parent="r0XppYjOHFWuuAW1p3Sf-179">
          <mxGeometry width="30" height="30" as="geometry" />
        </mxCell>
        <mxCell id="r0XppYjOHFWuuAW1p3Sf-181" value="product-name" style="shape=partialRectangle;connectable=0;fillColor=none;top=0;left=0;bottom=0;right=0;align=left;spacingLeft=6;overflow=hidden;" vertex="1" parent="r0XppYjOHFWuuAW1p3Sf-179">
          <mxGeometry x="30" width="150" height="30" as="geometry" />
        </mxCell>
        <mxCell id="r0XppYjOHFWuuAW1p3Sf-206" style="shape=partialRectangle;collapsible=0;dropTarget=0;pointerEvents=0;fillColor=none;top=0;left=0;bottom=0;right=0;points=[[0,0.5],[1,0.5]];portConstraint=eastwest;" vertex="1" parent="r0XppYjOHFWuuAW1p3Sf-172">
          <mxGeometry y="90" width="180" height="30" as="geometry" />
        </mxCell>
        <mxCell id="r0XppYjOHFWuuAW1p3Sf-207" style="shape=partialRectangle;connectable=0;fillColor=none;top=0;left=0;bottom=0;right=0;editable=1;overflow=hidden;" vertex="1" parent="r0XppYjOHFWuuAW1p3Sf-206">
          <mxGeometry width="30" height="30" as="geometry" />
        </mxCell>
        <mxCell id="r0XppYjOHFWuuAW1p3Sf-208" value="product-description" style="shape=partialRectangle;connectable=0;fillColor=none;top=0;left=0;bottom=0;right=0;align=left;spacingLeft=6;overflow=hidden;" vertex="1" parent="r0XppYjOHFWuuAW1p3Sf-206">
          <mxGeometry x="30" width="150" height="30" as="geometry" />
        </mxCell>
        <mxCell id="r0XppYjOHFWuuAW1p3Sf-203" style="shape=partialRectangle;collapsible=0;dropTarget=0;pointerEvents=0;fillColor=none;top=0;left=0;bottom=0;right=0;points=[[0,0.5],[1,0.5]];portConstraint=eastwest;" vertex="1" parent="r0XppYjOHFWuuAW1p3Sf-172">
          <mxGeometry y="120" width="180" height="30" as="geometry" />
        </mxCell>
        <mxCell id="r0XppYjOHFWuuAW1p3Sf-204" style="shape=partialRectangle;connectable=0;fillColor=none;top=0;left=0;bottom=0;right=0;editable=1;overflow=hidden;" vertex="1" parent="r0XppYjOHFWuuAW1p3Sf-203">
          <mxGeometry width="30" height="30" as="geometry" />
        </mxCell>
        <mxCell id="r0XppYjOHFWuuAW1p3Sf-205" value="product-category" style="shape=partialRectangle;connectable=0;fillColor=none;top=0;left=0;bottom=0;right=0;align=left;spacingLeft=6;overflow=hidden;" vertex="1" parent="r0XppYjOHFWuuAW1p3Sf-203">
          <mxGeometry x="30" width="150" height="30" as="geometry" />
        </mxCell>
        <mxCell id="r0XppYjOHFWuuAW1p3Sf-200" style="shape=partialRectangle;collapsible=0;dropTarget=0;pointerEvents=0;fillColor=none;top=0;left=0;bottom=0;right=0;points=[[0,0.5],[1,0.5]];portConstraint=eastwest;" vertex="1" parent="r0XppYjOHFWuuAW1p3Sf-172">
          <mxGeometry y="150" width="180" height="30" as="geometry" />
        </mxCell>
        <mxCell id="r0XppYjOHFWuuAW1p3Sf-201" style="shape=partialRectangle;connectable=0;fillColor=none;top=0;left=0;bottom=0;right=0;editable=1;overflow=hidden;" vertex="1" parent="r0XppYjOHFWuuAW1p3Sf-200">
          <mxGeometry width="30" height="30" as="geometry" />
        </mxCell>
        <mxCell id="r0XppYjOHFWuuAW1p3Sf-202" style="shape=partialRectangle;connectable=0;fillColor=none;top=0;left=0;bottom=0;right=0;align=left;spacingLeft=6;overflow=hidden;" vertex="1" parent="r0XppYjOHFWuuAW1p3Sf-200">
          <mxGeometry x="30" width="150" height="30" as="geometry" />
        </mxCell>
        <mxCell id="r0XppYjOHFWuuAW1p3Sf-197" style="shape=partialRectangle;collapsible=0;dropTarget=0;pointerEvents=0;fillColor=none;top=0;left=0;bottom=0;right=0;points=[[0,0.5],[1,0.5]];portConstraint=eastwest;" vertex="1" parent="r0XppYjOHFWuuAW1p3Sf-172">
          <mxGeometry y="180" width="180" height="30" as="geometry" />
        </mxCell>
        <mxCell id="r0XppYjOHFWuuAW1p3Sf-198" style="shape=partialRectangle;connectable=0;fillColor=none;top=0;left=0;bottom=0;right=0;editable=1;overflow=hidden;" vertex="1" parent="r0XppYjOHFWuuAW1p3Sf-197">
          <mxGeometry width="30" height="30" as="geometry" />
        </mxCell>
        <mxCell id="r0XppYjOHFWuuAW1p3Sf-199" style="shape=partialRectangle;connectable=0;fillColor=none;top=0;left=0;bottom=0;right=0;align=left;spacingLeft=6;overflow=hidden;" vertex="1" parent="r0XppYjOHFWuuAW1p3Sf-197">
          <mxGeometry x="30" width="150" height="30" as="geometry" />
        </mxCell>
        <mxCell id="r0XppYjOHFWuuAW1p3Sf-194" style="shape=partialRectangle;collapsible=0;dropTarget=0;pointerEvents=0;fillColor=none;top=0;left=0;bottom=0;right=0;points=[[0,0.5],[1,0.5]];portConstraint=eastwest;" vertex="1" parent="r0XppYjOHFWuuAW1p3Sf-172">
          <mxGeometry y="210" width="180" height="30" as="geometry" />
        </mxCell>
        <mxCell id="r0XppYjOHFWuuAW1p3Sf-195" style="shape=partialRectangle;connectable=0;fillColor=none;top=0;left=0;bottom=0;right=0;editable=1;overflow=hidden;" vertex="1" parent="r0XppYjOHFWuuAW1p3Sf-194">
          <mxGeometry width="30" height="30" as="geometry" />
        </mxCell>
        <mxCell id="r0XppYjOHFWuuAW1p3Sf-196" style="shape=partialRectangle;connectable=0;fillColor=none;top=0;left=0;bottom=0;right=0;align=left;spacingLeft=6;overflow=hidden;" vertex="1" parent="r0XppYjOHFWuuAW1p3Sf-194">
          <mxGeometry x="30" width="150" height="30" as="geometry" />
        </mxCell>
        <mxCell id="r0XppYjOHFWuuAW1p3Sf-191" style="shape=partialRectangle;collapsible=0;dropTarget=0;pointerEvents=0;fillColor=none;top=0;left=0;bottom=0;right=0;points=[[0,0.5],[1,0.5]];portConstraint=eastwest;" vertex="1" parent="r0XppYjOHFWuuAW1p3Sf-172">
          <mxGeometry y="240" width="180" height="30" as="geometry" />
        </mxCell>
        <mxCell id="r0XppYjOHFWuuAW1p3Sf-192" style="shape=partialRectangle;connectable=0;fillColor=none;top=0;left=0;bottom=0;right=0;editable=1;overflow=hidden;" vertex="1" parent="r0XppYjOHFWuuAW1p3Sf-191">
          <mxGeometry width="30" height="30" as="geometry" />
        </mxCell>
        <mxCell id="r0XppYjOHFWuuAW1p3Sf-193" style="shape=partialRectangle;connectable=0;fillColor=none;top=0;left=0;bottom=0;right=0;align=left;spacingLeft=6;overflow=hidden;" vertex="1" parent="r0XppYjOHFWuuAW1p3Sf-191">
          <mxGeometry x="30" width="150" height="30" as="geometry" />
        </mxCell>
        <mxCell id="r0XppYjOHFWuuAW1p3Sf-188" style="shape=partialRectangle;collapsible=0;dropTarget=0;pointerEvents=0;fillColor=none;top=0;left=0;bottom=0;right=0;points=[[0,0.5],[1,0.5]];portConstraint=eastwest;" vertex="1" parent="r0XppYjOHFWuuAW1p3Sf-172">
          <mxGeometry y="270" width="180" height="30" as="geometry" />
        </mxCell>
        <mxCell id="r0XppYjOHFWuuAW1p3Sf-189" style="shape=partialRectangle;connectable=0;fillColor=none;top=0;left=0;bottom=0;right=0;editable=1;overflow=hidden;" vertex="1" parent="r0XppYjOHFWuuAW1p3Sf-188">
          <mxGeometry width="30" height="30" as="geometry" />
        </mxCell>
        <mxCell id="r0XppYjOHFWuuAW1p3Sf-190" style="shape=partialRectangle;connectable=0;fillColor=none;top=0;left=0;bottom=0;right=0;align=left;spacingLeft=6;overflow=hidden;" vertex="1" parent="r0XppYjOHFWuuAW1p3Sf-188">
          <mxGeometry x="30" width="150" height="30" as="geometry" />
        </mxCell>
        <mxCell id="r0XppYjOHFWuuAW1p3Sf-185" style="shape=partialRectangle;collapsible=0;dropTarget=0;pointerEvents=0;fillColor=none;top=0;left=0;bottom=0;right=0;points=[[0,0.5],[1,0.5]];portConstraint=eastwest;" vertex="1" parent="r0XppYjOHFWuuAW1p3Sf-172">
          <mxGeometry y="300" width="180" height="30" as="geometry" />
        </mxCell>
        <mxCell id="r0XppYjOHFWuuAW1p3Sf-186" style="shape=partialRectangle;connectable=0;fillColor=none;top=0;left=0;bottom=0;right=0;editable=1;overflow=hidden;" vertex="1" parent="r0XppYjOHFWuuAW1p3Sf-185">
          <mxGeometry width="30" height="30" as="geometry" />
        </mxCell>
        <mxCell id="r0XppYjOHFWuuAW1p3Sf-187" style="shape=partialRectangle;connectable=0;fillColor=none;top=0;left=0;bottom=0;right=0;align=left;spacingLeft=6;overflow=hidden;" vertex="1" parent="r0XppYjOHFWuuAW1p3Sf-185">
          <mxGeometry x="30" width="150" height="30" as="geometry" />
        </mxCell>
      </root>
    </mxGraphModel>
  </diagram>
</mxfile>
